M48
; DRILL file {KiCad 9.0.4} date 2025-11-15T17:06:34-0500
; FORMAT={-:-/ absolute / metric / decimal}
; #@! TF.CreationDate,2025-11-15T17:06:34-05:00
; #@! TF.GenerationSoftware,Kicad,Pcbnew,9.0.4
; #@! TF.FileFunction,Plated,1,4,PTH
FMAT,2
METRIC
; #@! TA.AperFunction,Plated,PTH,ViaDrill
T1C0.300
; #@! TA.AperFunction,Plated,PTH,ComponentDrill
T2C0.800
; #@! TA.AperFunction,Plated,PTH,ComponentDrill
T3C0.950
; #@! TA.AperFunction,Plated,PTH,ComponentDrill
T4C1.000
; #@! TA.AperFunction,Plated,PTH,ComponentDrill
T5C1.100
; #@! TA.AperFunction,Plated,PTH,ComponentDrill
T6C1.200
; #@! TA.AperFunction,Plated,PTH,ComponentDrill
T7C1.400
%
G90
G05
T1
X13.724Y-87.933
X14.829Y-105.824
X15.06Y-92.58
X15.31Y-102.93
X15.916Y-94.453
X16.078Y-114.882
X19.02Y-79.52
X19.51Y-117.329
X21.649Y-106.003
X22.298Y-81.494
X22.618Y-118.121
X24.722Y-114.021
X25.4Y-97.282
X25.4Y-97.79
X26.838Y-79.422
X28.45Y-115.57
X28.79Y-115.57
X29.28Y-115.57
X29.377Y-128.035
X30.131Y-72.32
X32.15Y-68.3
X33.172Y-80.986
X35.71Y-135.05
X36.255Y-123.6
X36.59Y-62.276
X36.8Y-65.85
X37.528Y-139.418
X39.25Y-141.95
X39.272Y-110.191
X39.4Y-79.31
X40.12Y-139.138
X40.435Y-143.28
X41.884Y-58.022
X43.6Y-52.05
X44.575Y-149.475
X45.75Y-150.6
X47.261Y-149.04
X47.297Y-47.201
X48.033Y-47.7
X48.913Y-48.233
X49.933Y-157.057
X51.011Y-42.016
X51.744Y-159.656
X52.844Y-27.153
X53.205Y-169.903
X53.37Y-161.999
X53.586Y-36.658
X53.71Y-25.7
X55.297Y-25.381
X55.38Y-35.73
X55.861Y-169.377
X56.081Y-168.487
X57.254Y-177.075
X57.571Y-24.107
X57.989Y-169.571
X60.09Y-168.6
X60.73Y-174.765
X63.984Y-22.455
X64.47Y-20.01
X66.8Y-21.35
X67.271Y-175.447
X68.55Y-17.6
X68.754Y-18.554
X70.969Y-170.89
X72.649Y-170.169
X74.567Y-165.585
X76.0Y-15.46
X77.295Y-167.135
X77.604Y-164.28
X78.38Y-15.776
X82.45Y-165.038
X83.665Y-101.862
X83.665Y-110.309
X87.113Y-15.743
X87.15Y-14.3
X87.953Y-86.664
X88.7Y-159.7
X89.326Y-24.322
X89.326Y-30.287
X89.605Y-111.006
X89.729Y-33.397
X91.37Y-25.43
X91.37Y-26.7
X91.39Y-110.309
X91.649Y-34.032
X92.2Y-159.15
X92.27Y-152.66
X93.134Y-30.616
X93.569Y-153.317
X93.622Y-155.494
X93.782Y-150.934
X94.46Y-163.538
X94.819Y-164.376
X94.976Y-33.827
X95.178Y-151.475
X95.188Y-149.381
X95.545Y-89.933
X95.545Y-104.009
X95.781Y-159.709
X95.839Y-12.669
X96.15Y-16.1
X96.437Y-160.5
X96.89Y-150.08
X96.89Y-153.89
X97.613Y-160.865
X97.825Y-31.78
X99.117Y-16.876
X100.323Y-15.989
X101.057Y-33.043
X101.3Y-104.007
X101.307Y-158.851
X101.55Y-156.5
X101.893Y-14.144
X102.08Y-164.41
X102.584Y-154.952
X102.699Y-153.542
X103.237Y-26.49
X103.237Y-27.76
X103.237Y-29.03
X103.237Y-30.261
X103.237Y-31.57
X103.95Y-163.595
X104.588Y-24.382
X104.889Y-30.65
X105.409Y-150.509
X105.409Y-155.147
X106.002Y-104.026
X106.067Y-27.046
X106.331Y-28.15
X106.999Y-95.465
X107.806Y-102.249
X107.825Y-158.12
X108.225Y-13.12
X108.663Y-147.45
X108.663Y-151.26
X109.233Y-24.932
X109.973Y-160.508
X110.184Y-153.799
X110.396Y-89.137
X110.396Y-92.915
X110.396Y-98.88
X110.575Y-155.567
X112.98Y-13.72
X113.138Y-161.162
X117.203Y-15.152
X117.301Y-14.04
X118.679Y-165.21
X121.495Y-166.497
X123.048Y-17.161
X125.285Y-16.295
X125.362Y-168.199
X129.613Y-18.093
X133.32Y-176.82
X133.836Y-19.341
X134.054Y-174.838
X134.147Y-22.11
X136.637Y-20.567
X142.36Y-23.49
X142.77Y-36.622
X142.907Y-171.016
X143.8Y-173.15
X143.825Y-176.422
X143.959Y-171.573
X144.6Y-164.05
X144.842Y-170.365
X145.0Y-28.238
X145.529Y-36.79
X146.8Y-162.1
X147.3Y-39.25
X147.72Y-26.81
X148.255Y-155.507
X148.75Y-171.85
X149.555Y-94.861
X150.823Y-155.692
X152.61Y-46.92
X152.991Y-151.71
X154.44Y-49.38
X154.6Y-146.95
X156.076Y-148.146
X156.341Y-103.321
X157.807Y-54.303
X159.59Y-56.875
X160.33Y-96.876
X160.632Y-57.822
X161.355Y-90.424
X161.425Y-140.575
X162.69Y-135.696
X162.953Y-93.716
X163.11Y-60.86
X165.171Y-134.099
X166.2Y-65.35
X166.706Y-100.13
X167.58Y-98.892
X167.669Y-68.122
X168.054Y-100.325
X168.579Y-105.867
X168.759Y-95.972
X169.191Y-97.006
X169.374Y-125.953
X171.716Y-123.469
X172.032Y-104.392
X172.148Y-74.205
X173.792Y-120.721
X173.907Y-76.709
X174.4Y-113.667
X175.311Y-89.68
X175.311Y-93.49
X175.311Y-94.76
X175.311Y-96.03
X175.311Y-98.57
X175.311Y-100.88
X175.311Y-108.5
X175.41Y-90.89
X175.42Y-97.26
X175.515Y-92.175
X175.869Y-111.162
X178.674Y-95.897
X179.51Y-80.31
X179.902Y-120.688
X182.2Y-112.15
X182.596Y-80.444
X183.977Y-105.026
X184.432Y-113.667
X186.527Y-89.212
X186.803Y-92.219
X187.05Y-109.4
X187.155Y-95.594
T2
X19.304Y-104.648
X19.304Y-112.268
X20.574Y-86.868
X20.574Y-94.488
X21.844Y-104.648
X21.844Y-112.268
X23.114Y-86.868
X23.114Y-94.488
T3
X155.274Y-108.712
X157.774Y-108.712
X160.274Y-108.712
T4
X150.11Y-98.4
X150.11Y-100.94
X152.65Y-98.4
X152.65Y-100.94
X155.19Y-98.4
X155.19Y-100.94
X157.73Y-98.4
X157.73Y-100.94
X160.27Y-98.4
X160.27Y-100.94
X162.81Y-98.4
X162.81Y-100.94
T5
X46.736Y-108.524
X47.498Y-91.882
X49.276Y-108.524
X49.464Y-97.536
X49.464Y-102.616
X50.038Y-91.882
X51.816Y-108.524
X52.578Y-91.882
T6
X29.3Y-109.44
X31.29Y-89.23
X36.8Y-109.44
X38.79Y-89.23
T7
X57.404Y-92.964
X57.404Y-105.664
M30
