%TF.GenerationSoftware,KiCad,Pcbnew,9.0.4*%
%TF.CreationDate,2025-11-15T17:06:31-05:00*%
%TF.ProjectId,LinePCB,4c696e65-5043-4422-9e6b-696361645f70,rev?*%
%TF.SameCoordinates,Original*%
%TF.FileFunction,Profile,NP*%
%FSLAX46Y46*%
G04 Gerber Fmt 4.6, Leading zero omitted, Abs format (unit mm)*
G04 Created by KiCad (PCBNEW 9.0.4) date 2025-11-15 17:06:31*
%MOMM*%
%LPD*%
G01*
G04 APERTURE LIST*
%TA.AperFunction,Profile*%
%ADD10C,0.200000*%
%TD*%
G04 APERTURE END LIST*
D10*
X37738115Y-75325764D02*
X49959171Y-83883041D01*
X81583980Y-74212819D02*
G75*
G02*
X81583980Y-68012821I0J3099999D01*
G01*
X51808260Y-25176500D02*
G75*
G02*
X148191740Y-25176500I48191740J-74823498D01*
G01*
X54246458Y-43032150D02*
X58471224Y-36998560D01*
X120700000Y-88461502D02*
G75*
G02*
X112199998Y-79961500I0J8500002D01*
G01*
X13206363Y-80305722D02*
G75*
G02*
X19556383Y-77854467I3998357J-907268D01*
G01*
X67155221Y-178536116D02*
G75*
G02*
X61841029Y-180404556I-3599181J1745246D01*
G01*
X58659100Y-32704916D02*
G75*
G02*
X58471221Y-36998558I-3464490J-1999334D01*
G01*
X61841028Y-180404558D02*
G75*
G02*
X49169856Y-173056801I38158872J80404358D01*
G01*
X72800000Y-87500000D02*
X61430700Y-87500000D01*
X114935384Y-160898486D02*
G75*
G02*
X132218947Y-169075178I-2435384J-27502814D01*
G01*
X118288608Y-18015082D02*
G75*
G02*
X139352719Y-25788387I-18288608J-81984918D01*
G01*
X72800000Y-112500000D02*
G75*
G02*
X87800000Y-127500000I0J-15000000D01*
G01*
X114935384Y-160898486D02*
G75*
G02*
X112200021Y-157910179I264616J2988286D01*
G01*
X37738115Y-75325764D02*
G75*
G02*
X36510236Y-68362115I2867885J4095764D01*
G01*
X51676675Y-31981955D02*
G75*
G02*
X51808264Y-25176506I2351665J3358525D01*
G01*
X72800000Y-112500000D02*
X61430700Y-112500000D01*
X61430700Y-87500000D02*
G75*
G02*
X49959171Y-83883041I0J20000000D01*
G01*
X111300000Y-131790870D02*
G75*
G02*
X108100000Y-131790870I-1600000J0D01*
G01*
X108100000Y-131790870D02*
G75*
G02*
X111300000Y-131790870I1600000J0D01*
G01*
X49959171Y-116116959D02*
G75*
G02*
X61430700Y-112500000I11471529J-16383041D01*
G01*
X13206363Y-119694278D02*
G75*
G02*
X13206363Y-80305722I86793637J19694278D01*
G01*
X118416000Y-68012819D02*
G75*
G02*
X118416000Y-74212781I0J-3099981D01*
G01*
X87800000Y-82500000D02*
X87800000Y-76712819D01*
X182587850Y-100000000D02*
G75*
G02*
X179387850Y-100000000I-1600000J0D01*
G01*
X179387850Y-100000000D02*
G75*
G02*
X182587850Y-100000000I1600000J0D01*
G01*
X141528770Y-36998550D02*
X172666992Y-81468540D01*
X139352719Y-25788387D02*
G75*
G02*
X141340848Y-32704886I-2342419J-4417313D01*
G01*
X176762762Y-121399328D02*
G75*
G02*
X178845516Y-121026536I1228738J-860372D01*
G01*
X148323335Y-31981948D02*
X146724406Y-33101530D01*
X112200000Y-76712800D02*
G75*
G02*
X114690254Y-74212819I2500000J0D01*
G01*
X81711392Y-18015082D02*
G75*
G02*
X87799964Y-22895136I1088608J-4880018D01*
G01*
X148191740Y-25176500D02*
G75*
G02*
X148323312Y-31981915I-2220040J-3446900D01*
G01*
X53636858Y-164814484D02*
X23237243Y-121399335D01*
X178851860Y-78969022D02*
G75*
G02*
X176762773Y-78600653I-860360J1228722D01*
G01*
X114700000Y-68012819D02*
G75*
G02*
X112199999Y-65503314I0J2500019D01*
G01*
X72800000Y-87500000D02*
X82800000Y-87500000D01*
X112200000Y-22895100D02*
G75*
G02*
X118288616Y-18015047I5000000J0D01*
G01*
X138158972Y-180404558D02*
G75*
G02*
X132844795Y-178536108I-1714972J3613758D01*
G01*
X112200000Y-76712800D02*
X112200000Y-79961500D01*
X87800000Y-157910200D02*
X87800000Y-127500000D01*
X20612150Y-100000000D02*
G75*
G02*
X17412150Y-100000000I-1600000J0D01*
G01*
X17412150Y-100000000D02*
G75*
G02*
X20612150Y-100000000I1600000J0D01*
G01*
X180443670Y-77854425D02*
G75*
G02*
X186793619Y-80305726I2351630J-3358475D01*
G01*
X23237238Y-78600672D02*
X53636792Y-35185610D01*
X81583980Y-74212819D02*
X85300000Y-74212819D01*
X85300000Y-74212819D02*
G75*
G02*
X87799981Y-76712819I0J-2499981D01*
G01*
X180443615Y-122145537D02*
X178845516Y-121026536D01*
X83183983Y-71112819D02*
G75*
G02*
X79983983Y-71112819I-1600000J0D01*
G01*
X79983983Y-71112819D02*
G75*
G02*
X83183983Y-71112819I1600000J0D01*
G01*
X120700000Y-88461502D02*
X169026695Y-88461502D01*
X23237238Y-78600672D02*
G75*
G02*
X21154323Y-78973353I-1228738J860372D01*
G01*
X21148140Y-121030978D02*
X19556381Y-122145540D01*
X19556386Y-77854463D02*
X21154324Y-78973352D01*
X112500000Y-165790870D02*
G75*
G02*
X132844772Y-178536119I0J-22610430D01*
G01*
X67781050Y-169075175D02*
G75*
G02*
X62409807Y-168626322I-2499650J2449875D01*
G01*
X36510229Y-68362110D02*
X54246458Y-43032150D01*
X118416000Y-68012819D02*
X114700000Y-68012819D01*
X62409808Y-168626321D02*
X54246458Y-156967850D01*
X68156281Y-92574603D02*
G75*
G02*
X64956281Y-92574603I-1600000J0D01*
G01*
X64956281Y-92574603D02*
G75*
G02*
X68156281Y-92574603I1600000J0D01*
G01*
X146363142Y-35185516D02*
X176762757Y-78600665D01*
X112500000Y-165790870D02*
X87499980Y-165790870D01*
X112200000Y-157910179D02*
X112200000Y-120038500D01*
X172666992Y-81468540D02*
G75*
G02*
X169026695Y-88461476I-3640292J-2548960D01*
G01*
X178851860Y-78969022D02*
X180443670Y-77854425D01*
X87800000Y-65512800D02*
X87800000Y-22895136D01*
X146731587Y-166903498D02*
X150835062Y-169776782D01*
X146363142Y-35185516D02*
G75*
G02*
X146724391Y-33101509I1228758J860316D01*
G01*
X60647281Y-25788387D02*
G75*
G02*
X81711392Y-18015082I39352719J-74211613D01*
G01*
X150830145Y-173056802D02*
G75*
G02*
X138158972Y-180404559I-50830445J73057302D01*
G01*
X172658273Y-118543912D02*
X137585640Y-168632823D01*
X186793637Y-119694278D02*
G75*
G02*
X180443639Y-122145503I-3998337J907278D01*
G01*
X120016017Y-71112819D02*
G75*
G02*
X116816017Y-71112819I-1600000J0D01*
G01*
X116816017Y-71112819D02*
G75*
G02*
X120016017Y-71112819I1600000J0D01*
G01*
X81583980Y-68012819D02*
X85300000Y-68012819D01*
X58659100Y-32704916D02*
G75*
G02*
X60647280Y-25788385I4330490J2499206D01*
G01*
X112200000Y-120038500D02*
G75*
G02*
X120700000Y-111538500I8500000J0D01*
G01*
X54246458Y-156967850D02*
X36510229Y-131637890D01*
X91900000Y-131790870D02*
G75*
G02*
X88700000Y-131790870I-1600000J0D01*
G01*
X88700000Y-131790870D02*
G75*
G02*
X91900000Y-131790870I1600000J0D01*
G01*
X67155221Y-178536116D02*
G75*
G02*
X87499980Y-165790869I20344759J-9865164D01*
G01*
X169026700Y-111538498D02*
G75*
G02*
X172658273Y-118543912I0J-4444002D01*
G01*
X141528770Y-36998550D02*
G75*
G02*
X141340897Y-32704914I3276600J2294300D01*
G01*
X53268434Y-33096516D02*
X51676675Y-31981955D01*
X186793637Y-80305722D02*
G75*
G02*
X186793637Y-119694278I-86793637J-19694278D01*
G01*
X68156281Y-107425397D02*
G75*
G02*
X64956281Y-107425397I-1600000J0D01*
G01*
X64956281Y-107425397D02*
G75*
G02*
X68156281Y-107425397I1600000J0D01*
G01*
X19556381Y-122145540D02*
G75*
G02*
X13206364Y-119694278I-2351661J3358520D01*
G01*
X137585640Y-168632823D02*
G75*
G02*
X132218957Y-169075168I-2867040J2007523D01*
G01*
X53268434Y-33096516D02*
G75*
G02*
X53636771Y-35185596I-860234J-1228684D01*
G01*
X87800000Y-65512800D02*
G75*
G02*
X85300000Y-68012800I-2500000J0D01*
G01*
X37744968Y-124669437D02*
X49959171Y-116116959D01*
X87800000Y-157910200D02*
G75*
G02*
X85064618Y-160898507I-3000000J0D01*
G01*
X150835062Y-169776782D02*
G75*
G02*
X150830167Y-173056834I-1147162J-1638318D01*
G01*
X112200000Y-65503314D02*
X112200000Y-22895100D01*
X120700000Y-111538498D02*
X169026700Y-111538498D01*
X67781050Y-169075175D02*
G75*
G02*
X85064616Y-160898482I19718950J-19326125D01*
G01*
X118416000Y-74212819D02*
X114690254Y-74212819D01*
X36510229Y-131637890D02*
G75*
G02*
X37744967Y-124669436I4095771J2867890D01*
G01*
X176762762Y-121399328D02*
X146355370Y-164825584D01*
X146731587Y-166903498D02*
G75*
G02*
X146355390Y-164825598I860513J1228798D01*
G01*
X49169855Y-173056802D02*
G75*
G02*
X49164958Y-169776776I1142245J1641722D01*
G01*
X87800000Y-82500000D02*
G75*
G02*
X82800000Y-87500000I-5000000J0D01*
G01*
X53636858Y-164814484D02*
G75*
G02*
X53275609Y-166898491I-1228758J-860316D01*
G01*
X49164954Y-169776771D02*
X53275594Y-166898470D01*
X21148140Y-121030978D02*
G75*
G02*
X23237227Y-121399347I860360J-1228722D01*
G01*
M02*
