%TF.GenerationSoftware,KiCad,Pcbnew,9.0.4*%
%TF.CreationDate,2025-11-15T17:06:31-05:00*%
%TF.ProjectId,LinePCB,4c696e65-5043-4422-9e6b-696361645f70,rev?*%
%TF.SameCoordinates,Original*%
%TF.FileFunction,Soldermask,Bot*%
%TF.FilePolarity,Negative*%
%FSLAX46Y46*%
G04 Gerber Fmt 4.6, Leading zero omitted, Abs format (unit mm)*
G04 Created by KiCad (PCBNEW 9.0.4) date 2025-11-15 17:06:31*
%MOMM*%
%LPD*%
G01*
G04 APERTURE LIST*
G04 Aperture macros list*
%AMRoundRect*
0 Rectangle with rounded corners*
0 $1 Rounding radius*
0 $2 $3 $4 $5 $6 $7 $8 $9 X,Y pos of 4 corners*
0 Add a 4 corners polygon primitive as box body*
4,1,4,$2,$3,$4,$5,$6,$7,$8,$9,$2,$3,0*
0 Add four circle primitives for the rounded corners*
1,1,$1+$1,$2,$3*
1,1,$1+$1,$4,$5*
1,1,$1+$1,$6,$7*
1,1,$1+$1,$8,$9*
0 Add four rect primitives between the rounded corners*
20,1,$1+$1,$2,$3,$4,$5,0*
20,1,$1+$1,$4,$5,$6,$7,0*
20,1,$1+$1,$6,$7,$8,$9,0*
20,1,$1+$1,$8,$9,$2,$3,0*%
G04 Aperture macros list end*
%ADD10RoundRect,0.250001X-0.949999X-0.949999X0.949999X-0.949999X0.949999X0.949999X-0.949999X0.949999X0*%
%ADD11C,2.400000*%
%ADD12RoundRect,0.250001X1.149999X-1.149999X1.149999X1.149999X-1.149999X1.149999X-1.149999X-1.149999X0*%
%ADD13C,2.800000*%
%ADD14RoundRect,0.250000X-0.600000X-0.725000X0.600000X-0.725000X0.600000X0.725000X-0.600000X0.725000X0*%
%ADD15O,1.700000X1.950000*%
%ADD16RoundRect,0.250000X0.600000X-0.600000X0.600000X0.600000X-0.600000X0.600000X-0.600000X-0.600000X0*%
%ADD17C,1.700000*%
%ADD18R,2.000000X2.000000*%
%ADD19C,2.000000*%
%ADD20R,1.905000X2.000000*%
%ADD21O,1.905000X2.000000*%
%ADD22RoundRect,0.250000X-0.550000X0.550000X-0.550000X-0.550000X0.550000X-0.550000X0.550000X0.550000X0*%
%ADD23C,1.600000*%
%ADD24RoundRect,0.250000X0.525253X-0.221605X0.344080X0.454543X-0.525253X0.221605X-0.344080X-0.454543X0*%
%ADD25R,1.676400X0.508000*%
%ADD26RoundRect,0.250000X-0.544813X-0.167867X0.028594X-0.569370X0.544813X0.167867X-0.028594X0.569370X0*%
%ADD27RoundRect,0.250000X-0.373072X-0.431066X0.325969X-0.467701X0.373072X0.431066X-0.325969X0.467701X0*%
%ADD28RoundRect,0.250000X0.292818X0.471575X-0.355599X0.426233X-0.292818X-0.471575X0.355599X-0.426233X0*%
%ADD29RoundRect,0.250000X0.218338X-0.510347X0.553113X0.046812X-0.218338X0.510347X-0.553113X-0.046812X0*%
%ADD30RoundRect,0.250000X-0.494331X0.283966X-0.396910X-0.409222X0.494331X-0.283966X0.396910X0.409222X0*%
%ADD31RoundRect,0.250000X-0.267736X-0.486253X0.377419X-0.407038X0.267736X0.486253X-0.377419X0.407038X0*%
%ADD32RoundRect,0.250000X0.544813X0.167867X-0.028594X0.569370X-0.544813X-0.167867X0.028594X-0.569370X0*%
%ADD33RoundRect,0.250000X0.008115X0.555031X-0.524334X0.182206X-0.008115X-0.555031X0.524334X-0.182206X0*%
%ADD34RoundRect,0.250000X-0.223896X0.524281X-0.563262X-0.087953X0.223896X-0.524281X0.563262X0.087953X0*%
%ADD35RoundRect,0.250000X-0.355599X-0.426233X0.292818X-0.471575X0.355599X0.426233X-0.292818X0.471575X0*%
%ADD36RoundRect,0.250000X-0.553453X0.136709X-0.268738X-0.502772X0.553453X-0.136709X0.268738X0.502772X0*%
%ADD37RoundRect,0.250000X0.552211X-0.056458X0.227211X0.506458X-0.552211X0.056458X-0.227211X-0.506458X0*%
%ADD38RoundRect,0.250000X0.524334X0.182206X-0.008115X0.555031X-0.524334X-0.182206X0.008115X-0.555031X0*%
%ADD39RoundRect,0.250000X0.395120X0.410950X-0.301045X0.484120X-0.395120X-0.410950X0.301045X-0.484120X0*%
%ADD40RoundRect,0.250000X0.200394X-0.517656X0.554409X0.027480X-0.200394X0.517656X-0.554409X-0.027480X0*%
%ADD41RoundRect,0.250000X-0.200394X0.517656X-0.554409X-0.027480X0.200394X-0.517656X0.554409X0.027480X0*%
%ADD42RoundRect,0.250000X0.422824X0.382387X-0.266541X0.503940X-0.422824X-0.382387X0.266541X-0.503940X0*%
%ADD43RoundRect,0.250000X0.362983X0.419962X-0.284543X0.476613X-0.362983X-0.419962X0.284543X-0.476613X0*%
%ADD44RoundRect,0.250000X-0.342093X-0.456040X0.357800X-0.443823X0.342093X0.456040X-0.357800X0.443823X0*%
%ADD45RoundRect,0.250000X-0.253406X0.493873X-0.548500X-0.085281X0.253406X-0.493873X0.548500X0.085281X0*%
%ADD46RoundRect,0.250000X0.450000X-0.325000X0.450000X0.325000X-0.450000X0.325000X-0.450000X-0.325000X0*%
%ADD47RoundRect,0.250000X-0.309448X-0.478792X0.387888X-0.417783X0.309448X0.478792X-0.387888X0.417783X0*%
%ADD48RoundRect,0.250000X0.564711X-0.078109X0.214711X0.528109X-0.564711X0.078109X-0.214711X-0.528109X0*%
%ADD49RoundRect,0.250000X-0.328007X0.466274X-0.532667X-0.203139X0.328007X-0.466274X0.532667X0.203139X0*%
%ADD50RoundRect,0.250000X-0.512936X0.248791X-0.367397X-0.435912X0.512936X-0.248791X0.367397X0.435912X0*%
%ADD51RoundRect,0.250000X-0.570021X0.008706X-0.148751X-0.550339X0.570021X-0.008706X0.148751X0.550339X0*%
%ADD52RoundRect,0.250000X-0.450000X0.350000X-0.450000X-0.350000X0.450000X-0.350000X0.450000X0.350000X0*%
%ADD53RoundRect,0.250000X-0.028594X-0.569370X0.544813X-0.167867X0.028594X0.569370X-0.544813X0.167867X0*%
%ADD54RoundRect,0.250000X0.350000X0.450000X-0.350000X0.450000X-0.350000X-0.450000X0.350000X-0.450000X0*%
%ADD55RoundRect,0.250000X0.276182X0.481507X-0.370257X0.413563X-0.276182X-0.481507X0.370257X-0.413563X0*%
%ADD56RoundRect,0.250000X0.456040X-0.342093X0.443823X0.357800X-0.456040X0.342093X-0.443823X-0.357800X0*%
%ADD57RoundRect,0.250000X-0.008115X-0.555031X0.524334X-0.182206X0.008115X0.555031X-0.524334X0.182206X0*%
%ADD58RoundRect,0.250000X-0.524334X-0.182206X0.008115X-0.555031X0.524334X0.182206X-0.008115X0.555031X0*%
%ADD59RoundRect,0.250000X0.028594X0.569370X-0.544813X0.167867X-0.028594X-0.569370X0.544813X-0.167867X0*%
%ADD60RoundRect,0.250000X0.535281X0.196150X-0.058353X0.567093X-0.535281X-0.196150X0.058353X-0.567093X0*%
%ADD61RoundRect,0.250000X-0.350000X-0.450000X0.350000X-0.450000X0.350000X0.450000X-0.350000X0.450000X0*%
%ADD62RoundRect,0.250000X0.214711X-0.528109X0.564711X0.078109X-0.214711X0.528109X-0.564711X-0.078109X0*%
%ADD63RoundRect,0.250000X-0.391394X-0.393619X0.250603X-0.495301X0.391394X0.393619X-0.250603X0.495301X0*%
%ADD64RoundRect,0.250000X-0.384465X-0.400389X0.259209X-0.490852X0.384465X0.400389X-0.259209X0.490852X0*%
%ADD65RoundRect,0.250000X0.450000X-0.350000X0.450000X0.350000X-0.450000X0.350000X-0.450000X-0.350000X0*%
%ADD66RoundRect,0.250000X-0.359734X0.442257X-0.517199X-0.239802X0.359734X-0.442257X0.517199X0.239802X0*%
%ADD67RoundRect,0.250000X-0.292818X-0.471575X0.355599X-0.426233X0.292818X0.471575X-0.355599X0.426233X0*%
%ADD68RoundRect,0.250000X-0.477437X-0.311535X0.184426X-0.539432X0.477437X0.311535X-0.184426X0.539432X0*%
%ADD69RoundRect,0.250000X0.569782X-0.018653X0.158333X0.547659X-0.569782X0.018653X-0.158333X-0.547659X0*%
%ADD70RoundRect,0.250000X-0.021139X0.569696X-0.557370X0.119744X0.021139X-0.569696X0.557370X-0.119744X0*%
%ADD71RoundRect,0.250000X0.542631X0.116948X0.059587X0.551883X-0.542631X-0.116948X-0.059587X-0.551883X0*%
%ADD72RoundRect,0.250000X-0.535767X-0.145187X-0.030622X-0.554245X0.535767X0.145187X0.030622X0.554245X0*%
%ADD73RoundRect,0.250000X-0.402232X-0.403991X0.292550X-0.489300X0.402232X0.403991X-0.292550X0.489300X0*%
%ADD74RoundRect,0.250000X-0.567093X0.058353X-0.196150X-0.535281X0.567093X-0.058353X0.196150X0.535281X0*%
%ADD75RoundRect,0.250000X0.508515X-0.257705X0.374949X0.429434X-0.508515X0.257705X-0.374949X-0.429434X0*%
%ADD76RoundRect,0.250000X0.251027X-0.511845X0.557887X0.117311X-0.251027X0.511845X-0.557887X-0.117311X0*%
%ADD77RoundRect,0.250000X0.528406X-0.170036X0.327545X0.448151X-0.528406X0.170036X-0.327545X-0.448151X0*%
%ADD78RoundRect,0.250000X0.389708X-0.416086X0.499212X0.275295X-0.389708X0.416086X-0.499212X-0.275295X0*%
%ADD79RoundRect,0.250000X-0.365492X-0.437511X0.334082X-0.461941X0.365492X0.437511X-0.334082X0.461941X0*%
%ADD80RoundRect,0.250000X0.174983X0.542569X-0.482801X0.303155X-0.174983X-0.542569X0.482801X-0.303155X0*%
%ADD81RoundRect,0.250000X-0.179232X-0.525358X0.442366X-0.335316X0.179232X0.525358X-0.442366X0.335316X0*%
%ADD82RoundRect,0.250000X-0.473319X0.317757X-0.424489X-0.380538X0.473319X-0.317757X0.424489X0.380538X0*%
%ADD83RoundRect,0.250000X-0.040290X0.553626X-0.538219X0.135814X0.040290X-0.553626X0.538219X-0.135814X0*%
%ADD84RoundRect,0.250000X0.367397X-0.435912X0.512936X0.248791X-0.367397X0.435912X-0.512936X-0.248791X0*%
%ADD85RoundRect,0.250000X0.287240X-0.474993X0.541215X0.123335X-0.287240X0.474993X-0.541215X-0.123335X0*%
%ADD86RoundRect,0.250000X0.301045X0.484120X-0.395120X0.410950X-0.301045X-0.484120X0.395120X-0.410950X0*%
%ADD87RoundRect,0.250000X-0.481507X0.276182X-0.413563X-0.370257X0.481507X-0.276182X0.413563X0.370257X0*%
%ADD88RoundRect,0.250000X-0.515258X0.206481X-0.358008X-0.424211X0.515258X-0.206481X0.358008X0.424211X0*%
%ADD89RoundRect,0.250000X-0.275295X-0.499212X0.416086X-0.389708X0.275295X0.499212X-0.416086X0.389708X0*%
%ADD90RoundRect,0.250000X0.555031X-0.008115X0.182206X0.524334X-0.555031X0.008115X-0.182206X-0.524334X0*%
%ADD91RoundRect,0.250000X-0.191329X0.521074X-0.554805X-0.017800X0.191329X-0.521074X0.554805X0.017800X0*%
%ADD92RoundRect,0.250000X0.499599X-0.241921X0.386728X0.398204X-0.499599X0.241921X-0.386728X-0.398204X0*%
%ADD93RoundRect,0.250000X-0.417783X0.387888X-0.478792X-0.309448X0.417783X-0.387888X0.478792X0.309448X0*%
%ADD94RoundRect,0.250000X-0.319674X0.453799X-0.531293X-0.160788X0.319674X-0.453799X0.531293X0.160788X0*%
%ADD95RoundRect,0.250000X0.490852X-0.259209X0.400389X0.384465X-0.490852X0.259209X-0.400389X-0.384465X0*%
%ADD96RoundRect,0.250000X-0.325000X-0.450000X0.325000X-0.450000X0.325000X0.450000X-0.325000X0.450000X0*%
%ADD97RoundRect,0.250000X-0.374949X0.429434X-0.508515X-0.257705X0.374949X-0.429434X0.508515X0.257705X0*%
%ADD98RoundRect,0.250000X-0.389708X0.416086X-0.499212X-0.275295X0.389708X-0.416086X0.499212X0.275295X0*%
%ADD99RoundRect,0.250000X-0.450000X0.325000X-0.450000X-0.325000X0.450000X-0.325000X0.450000X0.325000X0*%
%ADD100RoundRect,0.250000X0.119744X-0.557370X0.569696X-0.021139X-0.119744X0.557370X-0.569696X0.021139X0*%
%ADD101RoundRect,0.250000X0.566833X0.060827X0.080572X0.564365X-0.566833X-0.060827X-0.080572X-0.564365X0*%
%ADD102RoundRect,0.250000X-0.227211X0.506458X-0.552211X-0.056458X0.227211X-0.506458X0.552211X0.056458X0*%
%ADD103RoundRect,0.250000X0.350550X-0.430394X0.518783X0.197457X-0.350550X0.430394X-0.518783X-0.197457X0*%
%ADD104RoundRect,0.250000X-0.538980X0.132762X-0.295486X-0.469908X0.538980X-0.132762X0.295486X0.469908X0*%
%ADD105RoundRect,0.250000X0.461068X-0.309097X0.438384X0.340507X-0.461068X0.309097X-0.438384X-0.340507X0*%
%ADD106RoundRect,0.250000X0.355599X0.426233X-0.292818X0.471575X-0.355599X-0.426233X0.292818X-0.471575X0*%
%ADD107RoundRect,0.250000X0.334082X0.461941X-0.365492X0.437511X-0.334082X-0.461941X0.365492X-0.437511X0*%
%ADD108RoundRect,0.250000X0.503940X-0.266541X0.382387X0.422824X-0.503940X0.266541X-0.382387X-0.422824X0*%
%ADD109RoundRect,0.250000X0.365492X0.437511X-0.334082X0.461941X-0.365492X-0.437511X0.334082X-0.461941X0*%
%ADD110RoundRect,0.250000X0.554409X-0.027480X0.200394X0.517656X-0.554409X0.027480X-0.200394X-0.517656X0*%
%ADD111RoundRect,0.250000X0.319674X-0.453799X0.531293X0.160788X-0.319674X0.453799X-0.531293X-0.160788X0*%
%ADD112RoundRect,0.250000X0.459309X0.311705X-0.151491X0.534018X-0.459309X-0.311705X0.151491X-0.534018X0*%
%ADD113RoundRect,0.250000X-0.432374X0.348106X-0.466392X-0.301003X0.432374X-0.348106X0.466392X0.301003X0*%
%ADD114RoundRect,0.250000X0.266541X0.503940X-0.422824X0.382387X-0.266541X-0.503940X0.422824X-0.382387X0*%
%ADD115RoundRect,0.250000X0.227211X-0.506458X0.552211X0.056458X-0.227211X0.506458X-0.552211X-0.056458X0*%
%ADD116RoundRect,0.250000X-0.379719X0.404893X-0.503745X-0.233165X0.379719X-0.404893X0.503745X0.233165X0*%
%ADD117RoundRect,0.250000X-0.516148X-0.242056X0.107557X-0.559850X0.516148X0.242056X-0.107557X0.559850X0*%
%ADD118RoundRect,0.250000X-0.332804X-0.444259X0.317097X-0.455603X0.332804X0.444259X-0.317097X0.455603X0*%
%ADD119RoundRect,0.250000X-0.259209X-0.490852X0.384465X-0.400389X0.259209X0.490852X-0.384465X0.400389X0*%
%ADD120RoundRect,0.250000X-0.259922X0.507386X-0.555755X-0.127030X0.259922X-0.507386X0.555755X0.127030X0*%
%ADD121RoundRect,0.250000X-0.561641X0.097769X-0.233011X-0.520294X0.561641X-0.097769X0.233011X0.520294X0*%
%ADD122RoundRect,0.250000X0.554976X0.011260X0.163796X0.530373X-0.554976X-0.011260X-0.163796X-0.530373X0*%
%ADD123RoundRect,0.250000X-0.429434X-0.374949X0.257705X-0.508515X0.429434X0.374949X-0.257705X0.508515X0*%
%ADD124RoundRect,0.250000X0.021139X-0.569696X0.557370X-0.119744X-0.021139X0.569696X-0.557370X0.119744X0*%
%ADD125RoundRect,0.250000X-0.552211X0.056458X-0.227211X-0.506458X0.552211X-0.056458X0.227211X0.506458X0*%
%ADD126RoundRect,0.250000X0.482801X0.303155X-0.174983X0.542569X-0.482801X-0.303155X0.174983X-0.542569X0*%
%ADD127RoundRect,0.250000X0.411458X0.372595X-0.224338X0.507738X-0.411458X-0.372595X0.224338X-0.507738X0*%
%ADD128RoundRect,0.250000X0.059587X-0.551883X0.542631X-0.116948X-0.059587X0.551883X-0.542631X0.116948X0*%
%ADD129RoundRect,0.250000X0.557370X0.119744X0.021139X0.569696X-0.557370X-0.119744X-0.021139X-0.569696X0*%
%ADD130RoundRect,0.250000X-0.419962X0.362983X-0.476613X-0.284543X0.419962X-0.362983X0.476613X0.284543X0*%
%ADD131RoundRect,0.250000X-0.542569X0.174983X-0.303155X-0.482801X0.542569X-0.174983X0.303155X0.482801X0*%
%ADD132RoundRect,0.250000X0.075696X0.549905X-0.498220X0.244748X-0.075696X-0.549905X0.498220X-0.244748X0*%
%ADD133RoundRect,0.250000X0.546928X-0.094841X0.261987X0.489375X-0.546928X0.094841X-0.261987X-0.489375X0*%
%ADD134RoundRect,0.250000X-0.104372X-0.545189X0.484728X-0.270488X0.104372X0.545189X-0.484728X0.270488X0*%
%ADD135RoundRect,0.250000X-0.372595X0.411458X-0.507738X-0.224338X0.372595X-0.411458X0.507738X0.224338X0*%
%ADD136RoundRect,0.250000X0.382387X-0.422824X0.503940X0.266541X-0.382387X0.422824X-0.503940X-0.266541X0*%
%ADD137RoundRect,0.250000X0.407038X-0.377419X0.486253X0.267736X-0.407038X0.377419X-0.486253X-0.267736X0*%
%ADD138RoundRect,0.250000X-0.529041X0.212405X-0.336095X-0.460478X0.529041X-0.212405X0.336095X0.460478X0*%
%ADD139RoundRect,0.250000X0.233165X0.503745X-0.404893X0.379719X-0.233165X-0.503745X0.404893X-0.379719X0*%
%ADD140RoundRect,0.250000X0.301003X0.466392X-0.348106X0.432374X-0.301003X-0.466392X0.348106X-0.432374X0*%
%ADD141RoundRect,0.250000X-0.294682X0.488019X-0.545540X-0.165488X0.294682X-0.488019X0.545540X0.165488X0*%
%ADD142RoundRect,1.000000X-1.000000X-1.000000X1.000000X-1.000000X1.000000X1.000000X-1.000000X1.000000X0*%
%ADD143RoundRect,0.250000X-0.167867X0.544813X-0.569370X-0.028594X0.167867X-0.544813X0.569370X0.028594X0*%
G04 APERTURE END LIST*
D10*
%TO.C,U13*%
X31290000Y-89230000D03*
D11*
X38790000Y-89230000D03*
%TD*%
D10*
%TO.C,U12*%
X29300000Y-109440000D03*
D11*
X36800000Y-109440000D03*
%TD*%
D12*
%TO.C,U18*%
X57404000Y-105664000D03*
D13*
X57404000Y-92964000D03*
%TD*%
D14*
%TO.C,J3*%
X155274000Y-108712000D03*
D15*
X157774000Y-108712000D03*
X160274000Y-108712000D03*
%TD*%
D16*
%TO.C,J1*%
X150110000Y-100940000D03*
D17*
X150110000Y-98400000D03*
X152650000Y-100940000D03*
X152650000Y-98400000D03*
X155190000Y-100940000D03*
X155190000Y-98400000D03*
X157730000Y-100940000D03*
X157730000Y-98400000D03*
X160270000Y-100940000D03*
X160270000Y-98400000D03*
X162810000Y-100940000D03*
X162810000Y-98400000D03*
%TD*%
D18*
%TO.C,R103*%
X49464000Y-102616000D03*
D19*
X49464000Y-97536000D03*
%TD*%
D20*
%TO.C,U17*%
X47498000Y-91882000D03*
D21*
X50038000Y-91882000D03*
X52578000Y-91882000D03*
%TD*%
D22*
%TO.C,U10*%
X23114000Y-86868000D03*
D23*
X20574000Y-86868000D03*
X20574000Y-94488000D03*
X23114000Y-94488000D03*
%TD*%
D20*
%TO.C,U9*%
X51816000Y-108524000D03*
D21*
X49276000Y-108524000D03*
X46736000Y-108524000D03*
%TD*%
D22*
%TO.C,U15*%
X21844000Y-104648000D03*
D23*
X19304000Y-104648000D03*
X19304000Y-112268000D03*
X21844000Y-112268000D03*
%TD*%
D24*
%TO.C,R42*%
X81083019Y-165141124D03*
X80565381Y-163209276D03*
%TD*%
D25*
%TO.C,U5*%
X91370000Y-33050000D03*
X91370000Y-31780000D03*
X91370000Y-30510000D03*
X91370000Y-29240000D03*
X91370000Y-27970000D03*
X91370000Y-26700000D03*
X91370000Y-25430000D03*
X91370000Y-24160000D03*
X95992800Y-24160000D03*
X95992800Y-25430000D03*
X95992800Y-26700000D03*
X95992800Y-27970000D03*
X95992800Y-29240000D03*
X95992800Y-30510000D03*
X95992800Y-31780000D03*
X95992800Y-33050000D03*
%TD*%
D26*
%TO.C,R95*%
X48032848Y-45622624D03*
X49671152Y-46769776D03*
%TD*%
D27*
%TO.C,R69*%
X12493570Y-95407365D03*
X14490830Y-95512035D03*
%TD*%
D28*
%TO.C,D28*%
X187178403Y-93803900D03*
X185133397Y-93946900D03*
%TD*%
D29*
%TO.C,D4*%
X143851387Y-26603197D03*
X144907213Y-24846003D03*
%TD*%
D26*
%TO.C,R82*%
X33969248Y-65707524D03*
X35607552Y-66854676D03*
%TD*%
D30*
%TO.C,R84*%
X88246527Y-13270332D03*
X88524873Y-15250868D03*
%TD*%
D31*
%TO.C,D84*%
X13026741Y-110879116D03*
X15061459Y-110629284D03*
%TD*%
D32*
%TO.C,R15*%
X173655852Y-123039776D03*
X172017548Y-121892624D03*
%TD*%
D33*
%TO.C,D22*%
X147307131Y-39286684D03*
X145627869Y-40462516D03*
%TD*%
%TO.C,D26*%
X175434331Y-79456484D03*
X173755069Y-80632316D03*
%TD*%
D34*
%TO.C,R4*%
X142202209Y-23331081D03*
X141232591Y-25080319D03*
%TD*%
D35*
%TO.C,D44*%
X142452697Y-165316100D03*
X144497703Y-165459100D03*
%TD*%
D36*
%TO.C,R93*%
X64445263Y-19934456D03*
X65258737Y-21761544D03*
%TD*%
D37*
%TO.C,D53*%
X139547800Y-178169376D03*
X138522800Y-176394024D03*
%TD*%
D38*
%TO.C,D66*%
X33870031Y-69379616D03*
X32190769Y-68203784D03*
%TD*%
D39*
%TO.C,R13*%
X186879222Y-109281928D03*
X184890178Y-109072872D03*
%TD*%
D40*
%TO.C,D67*%
X15054744Y-80809638D03*
X16171256Y-79090362D03*
%TD*%
D41*
%TO.C,D11*%
X180893856Y-117644763D03*
X179777344Y-119364037D03*
%TD*%
D42*
%TO.C,R29*%
X186003908Y-115418049D03*
X184034292Y-115070751D03*
%TD*%
D32*
%TO.C,R62*%
X156076452Y-148145876D03*
X154438148Y-146998724D03*
%TD*%
D43*
%TO.C,D70*%
X14728300Y-92491934D03*
X12686100Y-92313266D03*
%TD*%
D44*
%TO.C,R90*%
X12387653Y-101604752D03*
X14387347Y-101569848D03*
%TD*%
D45*
%TO.C,D20*%
X139469142Y-21868018D03*
X138538458Y-23694582D03*
%TD*%
D26*
%TO.C,R75*%
X51548748Y-40601424D03*
X53187052Y-41748576D03*
%TD*%
D46*
%TO.C,D57*%
X96069300Y-164315900D03*
X96069300Y-162265900D03*
%TD*%
D38*
%TO.C,D31*%
X175434331Y-120543516D03*
X173755069Y-119367684D03*
%TD*%
D47*
%TO.C,R68*%
X12720805Y-107794156D03*
X14713195Y-107619844D03*
%TD*%
D26*
%TO.C,R74*%
X44516948Y-50643824D03*
X46155252Y-51790976D03*
%TD*%
D48*
%TO.C,R57*%
X75675400Y-167380525D03*
X74675400Y-165648475D03*
%TD*%
D25*
%TO.C,U4*%
X96890000Y-147540000D03*
X96890000Y-148810000D03*
X96890000Y-150080000D03*
X96890000Y-151350000D03*
X96890000Y-152620000D03*
X96890000Y-153890000D03*
X96890000Y-155160000D03*
X96890000Y-156430000D03*
X92267200Y-156430000D03*
X92267200Y-155160000D03*
X92267200Y-153890000D03*
X92267200Y-152620000D03*
X92267200Y-151350000D03*
X92267200Y-150080000D03*
X92267200Y-148810000D03*
X92267200Y-147540000D03*
%TD*%
D49*
%TO.C,R18*%
X125070872Y-16179095D03*
X124486128Y-18091705D03*
%TD*%
D50*
%TO.C,R79*%
X82134889Y-14303553D03*
X82550711Y-16259847D03*
%TD*%
D51*
%TO.C,R67*%
X14801185Y-119261364D03*
X16004815Y-120858636D03*
%TD*%
D52*
%TO.C,R98*%
X151032000Y-90424000D03*
X151032000Y-92424000D03*
%TD*%
D53*
%TO.C,R51*%
X35790248Y-136893176D03*
X37428552Y-135746024D03*
%TD*%
D33*
%TO.C,D38*%
X53270631Y-158327184D03*
X51591369Y-159503016D03*
%TD*%
D54*
%TO.C,U14*%
X21569000Y-108453000D03*
X19569000Y-108453000D03*
%TD*%
D55*
%TO.C,D82*%
X53309385Y-28902858D03*
X51270615Y-29117142D03*
%TD*%
D56*
%TO.C,R56*%
X86892152Y-164295747D03*
X86857248Y-162296053D03*
%TD*%
D57*
%TO.C,D63*%
X48075469Y-154481816D03*
X49754731Y-153305984D03*
%TD*%
D58*
%TO.C,D91*%
X49770269Y-43097684D03*
X51449531Y-44273516D03*
%TD*%
D59*
%TO.C,R23*%
X159592352Y-56875324D03*
X157954048Y-58022476D03*
%TD*%
D60*
%TO.C,R53*%
X67270547Y-175448020D03*
X65574453Y-174388180D03*
%TD*%
D38*
%TO.C,D32*%
X168402531Y-130585916D03*
X166723269Y-129410084D03*
%TD*%
D32*
%TO.C,R26*%
X163108252Y-138103476D03*
X161469948Y-136956324D03*
%TD*%
D61*
%TO.C,U11*%
X20844000Y-90694000D03*
X22844000Y-90694000D03*
%TD*%
D26*
%TO.C,R73*%
X37485148Y-60686324D03*
X39123452Y-61833476D03*
%TD*%
D62*
%TO.C,R58*%
X56281100Y-175869125D03*
X57281100Y-174137075D03*
%TD*%
D63*
%TO.C,D86*%
X13449019Y-86160354D03*
X15473781Y-86481046D03*
%TD*%
D57*
%TO.C,D76*%
X34011869Y-134396916D03*
X35691131Y-133221084D03*
%TD*%
D64*
%TO.C,D13*%
X184490575Y-112075948D03*
X186520625Y-112361252D03*
%TD*%
D32*
%TO.C,R33*%
X159592352Y-143124676D03*
X157954048Y-141977524D03*
%TD*%
D65*
%TO.C,U19*%
X28910000Y-117830000D03*
X28910000Y-115830000D03*
%TD*%
D57*
%TO.C,D15*%
X170239169Y-75611116D03*
X171918431Y-74435284D03*
%TD*%
D66*
%TO.C,R2*%
X119072651Y-14616830D03*
X118622749Y-16565570D03*
%TD*%
D53*
%TO.C,R46*%
X53369748Y-161999276D03*
X55008052Y-160852124D03*
%TD*%
D65*
%TO.C,R41*%
X93004500Y-164290900D03*
X93004500Y-162290900D03*
%TD*%
D67*
%TO.C,D5*%
X142327497Y-34951500D03*
X144372503Y-34808500D03*
%TD*%
D68*
%TO.C,R59*%
X55267482Y-166854432D03*
X57158518Y-167505568D03*
%TD*%
D69*
%TO.C,R36*%
X147573586Y-173472616D03*
X146398014Y-171854584D03*
%TD*%
D70*
%TO.C,R60*%
X145006044Y-167817212D03*
X143473956Y-169102788D03*
%TD*%
D71*
%TO.C,D60*%
X65794723Y-177985859D03*
X64271277Y-176614141D03*
%TD*%
D32*
%TO.C,R16*%
X166624152Y-133082176D03*
X164985848Y-131935024D03*
%TD*%
D72*
%TO.C,D37*%
X67404425Y-171779347D03*
X68997575Y-173069453D03*
%TD*%
D26*
%TO.C,R94*%
X41001048Y-55665124D03*
X42639352Y-56812276D03*
%TD*%
D73*
%TO.C,R86*%
X13037954Y-89233031D03*
X15023046Y-89476769D03*
%TD*%
D32*
%TO.C,R25*%
X170140052Y-128060976D03*
X168501748Y-126913824D03*
%TD*%
D74*
%TO.C,R71*%
X23720081Y-80291952D03*
X24779919Y-81988048D03*
%TD*%
D75*
%TO.C,R27*%
X177320809Y-119121627D03*
X176939191Y-117158373D03*
%TD*%
D48*
%TO.C,R64*%
X142186699Y-176610326D03*
X141186701Y-174878274D03*
%TD*%
D57*
%TO.C,D6*%
X149143769Y-45483816D03*
X150823031Y-44307984D03*
%TD*%
D76*
%TO.C,R55*%
X122826528Y-166722195D03*
X123703272Y-164924605D03*
%TD*%
D77*
%TO.C,D75*%
X73767143Y-18577833D03*
X73133657Y-16628167D03*
%TD*%
D78*
%TO.C,R37*%
X136086566Y-179550000D03*
X136399434Y-177574624D03*
%TD*%
D59*
%TO.C,R24*%
X166624152Y-66917824D03*
X164985848Y-68064976D03*
%TD*%
D33*
%TO.C,D23*%
X154338931Y-49329184D03*
X152659669Y-50505016D03*
%TD*%
D79*
%TO.C,R45*%
X50653609Y-171265106D03*
X52652391Y-171334894D03*
%TD*%
D25*
%TO.C,U6*%
X103237200Y-32840000D03*
X103237200Y-31570000D03*
X103237200Y-30300000D03*
X103237200Y-29030000D03*
X103237200Y-27760000D03*
X103237200Y-26490000D03*
X103237200Y-25220000D03*
X103237200Y-23950000D03*
X107860000Y-23950000D03*
X107860000Y-25220000D03*
X107860000Y-26490000D03*
X107860000Y-27760000D03*
X107860000Y-29030000D03*
X107860000Y-30300000D03*
X107860000Y-31570000D03*
X107860000Y-32840000D03*
%TD*%
D65*
%TO.C,R50*%
X111393800Y-164290899D03*
X111393800Y-162290901D03*
%TD*%
D80*
%TO.C,R20*%
X147932693Y-26757980D03*
X146053307Y-27442020D03*
%TD*%
D53*
%TO.C,R88*%
X28758448Y-126850776D03*
X30396752Y-125703624D03*
%TD*%
D81*
%TO.C,D92*%
X55273488Y-33175981D03*
X57233912Y-32576619D03*
%TD*%
D82*
%TO.C,R80*%
X94415544Y-12669136D03*
X94555056Y-14664264D03*
%TD*%
D57*
%TO.C,D64*%
X41043669Y-144439316D03*
X42722931Y-143263484D03*
%TD*%
D25*
%TO.C,U1*%
X175311400Y-89680000D03*
X175311400Y-90950000D03*
X175311400Y-92220000D03*
X175311400Y-93490000D03*
X175311400Y-94760000D03*
X175311400Y-96030000D03*
X175311400Y-97300000D03*
X175311400Y-98570000D03*
X170688600Y-98570000D03*
X170688600Y-97300000D03*
X170688600Y-96030000D03*
X170688600Y-94760000D03*
X170688600Y-93490000D03*
X170688600Y-92220000D03*
X170688600Y-90950000D03*
X170688600Y-89680000D03*
%TD*%
D33*
%TO.C,D33*%
X46238831Y-148284784D03*
X44559569Y-149460616D03*
%TD*%
D83*
%TO.C,D27*%
X185210795Y-81090042D03*
X183640405Y-82407758D03*
%TD*%
D53*
%TO.C,R61*%
X131685649Y-174261976D03*
X133323951Y-173114824D03*
%TD*%
D59*
%TO.C,R22*%
X152560552Y-46832924D03*
X150922248Y-47980076D03*
%TD*%
D38*
%TO.C,D80*%
X40901831Y-59337216D03*
X39222569Y-58161384D03*
%TD*%
D84*
%TO.C,R39*%
X117278388Y-164804348D03*
X117694212Y-162848052D03*
%TD*%
D38*
%TO.C,D65*%
X26838231Y-79422016D03*
X25158969Y-78246184D03*
%TD*%
D57*
%TO.C,D79*%
X26980069Y-124354516D03*
X28659331Y-123178684D03*
%TD*%
D85*
%TO.C,D3*%
X133034202Y-21166718D03*
X133835198Y-19279682D03*
%TD*%
D86*
%TO.C,R28*%
X186879221Y-90718072D03*
X184890179Y-90927128D03*
%TD*%
D87*
%TO.C,D96*%
X91323158Y-12890615D03*
X91537442Y-14929385D03*
%TD*%
D59*
%TO.C,R9*%
X170140052Y-71939024D03*
X168501748Y-73086176D03*
%TD*%
D57*
%TO.C,D8*%
X163207369Y-65568616D03*
X164886631Y-64392784D03*
%TD*%
D33*
%TO.C,D25*%
X168402531Y-69414084D03*
X166723269Y-70589916D03*
%TD*%
D88*
%TO.C,D95*%
X79104130Y-14956447D03*
X79600070Y-16945553D03*
%TD*%
D89*
%TO.C,R85*%
X13491211Y-113944334D03*
X15466589Y-113631466D03*
%TD*%
D53*
%TO.C,R49*%
X42822048Y-146935576D03*
X44460352Y-145788424D03*
%TD*%
D90*
%TO.C,D43*%
X54733016Y-170092231D03*
X53557184Y-168412969D03*
%TD*%
D53*
%TO.C,R47*%
X46337948Y-151956876D03*
X47976252Y-150809724D03*
%TD*%
D91*
%TO.C,D73*%
X24672073Y-118080836D03*
X23525727Y-119780364D03*
%TD*%
D38*
%TO.C,D49*%
X161370731Y-140628416D03*
X159691469Y-139452584D03*
%TD*%
%TO.C,D51*%
X147307131Y-160713316D03*
X145627869Y-159537484D03*
%TD*%
D92*
%TO.C,D68*%
X85533290Y-15727429D03*
X85177310Y-13708571D03*
%TD*%
D93*
%TO.C,R1*%
X106821456Y-12774406D03*
X106647144Y-14766794D03*
%TD*%
D33*
%TO.C,D35*%
X39207031Y-138242284D03*
X37527769Y-139418116D03*
%TD*%
D52*
%TO.C,R102*%
X162832000Y-90424000D03*
X162832000Y-92424000D03*
%TD*%
D58*
%TO.C,D90*%
X42738469Y-53140084D03*
X44417731Y-54315916D03*
%TD*%
D94*
%TO.C,D19*%
X128033207Y-17093744D03*
X127365793Y-19032056D03*
%TD*%
D95*
%TO.C,D58*%
X83964753Y-164562625D03*
X83679447Y-162532575D03*
%TD*%
D96*
%TO.C,D17*%
X185348000Y-100000000D03*
X187398000Y-100000000D03*
%TD*%
D97*
%TO.C,R10*%
X177210409Y-81226473D03*
X176828791Y-83189727D03*
%TD*%
D98*
%TO.C,R17*%
X112979534Y-13480112D03*
X112666666Y-15455488D03*
%TD*%
D53*
%TO.C,R66*%
X25242548Y-121829476D03*
X26880852Y-120682324D03*
%TD*%
D99*
%TO.C,D36*%
X102199100Y-162265900D03*
X102199100Y-164315900D03*
%TD*%
D59*
%TO.C,R7*%
X156076452Y-51854124D03*
X154438148Y-53001276D03*
%TD*%
D38*
%TO.C,D77*%
X54965431Y-39252316D03*
X53286169Y-38076484D03*
%TD*%
D100*
%TO.C,R38*%
X127732812Y-169945444D03*
X129018388Y-168413356D03*
%TD*%
D101*
%TO.C,R43*%
X70969259Y-170889541D03*
X69579941Y-169450859D03*
%TD*%
D52*
%TO.C,R97*%
X148082000Y-90424000D03*
X148082000Y-92424000D03*
%TD*%
D102*
%TO.C,D42*%
X59945000Y-175652924D03*
X58920000Y-177428276D03*
%TD*%
D53*
%TO.C,R48*%
X39306148Y-141914376D03*
X40944452Y-140767224D03*
%TD*%
D59*
%TO.C,R8*%
X163108252Y-61896524D03*
X161469948Y-63043676D03*
%TD*%
D103*
%TO.C,D2*%
X121561411Y-17301173D03*
X122091989Y-15321027D03*
%TD*%
D104*
%TO.C,D94*%
X67295529Y-18715336D03*
X68063471Y-20616064D03*
%TD*%
D105*
%TO.C,D71*%
X97582872Y-14555376D03*
X97511328Y-12506624D03*
%TD*%
D106*
%TO.C,D29*%
X187178403Y-106196100D03*
X185133397Y-106053100D03*
%TD*%
D107*
%TO.C,R12*%
X187318090Y-96900901D03*
X185319310Y-96970699D03*
%TD*%
D38*
%TO.C,D81*%
X47933631Y-49294716D03*
X46254369Y-48118884D03*
%TD*%
D108*
%TO.C,R89*%
X21138947Y-119280707D03*
X20791653Y-117311093D03*
%TD*%
D109*
%TO.C,R32*%
X187318090Y-103099100D03*
X185319310Y-103029300D03*
%TD*%
D54*
%TO.C,U16*%
X33274000Y-114554000D03*
X31274000Y-114554000D03*
%TD*%
D110*
%TO.C,D16*%
X180599755Y-81955637D03*
X179483245Y-80236363D03*
%TD*%
D111*
%TO.C,D55*%
X120103992Y-165614357D03*
X120771408Y-163676043D03*
%TD*%
D53*
%TO.C,R54*%
X49853848Y-156978076D03*
X51492152Y-155830924D03*
%TD*%
D41*
%TO.C,D39*%
X126482756Y-166482962D03*
X125366244Y-168202238D03*
%TD*%
D112*
%TO.C,D21*%
X147792985Y-30589971D03*
X145866615Y-29888829D03*
%TD*%
D46*
%TO.C,D56*%
X108328900Y-164315900D03*
X108328900Y-162265900D03*
%TD*%
D61*
%TO.C,U8*%
X22970000Y-101580000D03*
X24970000Y-101580000D03*
%TD*%
D113*
%TO.C,D14*%
X103729044Y-12559404D03*
X103621756Y-14606596D03*
%TD*%
D114*
%TO.C,R11*%
X186003908Y-84581951D03*
X184034292Y-84929249D03*
%TD*%
D115*
%TO.C,D61*%
X53617300Y-174353276D03*
X54642300Y-172577924D03*
%TD*%
D116*
%TO.C,D18*%
X116040879Y-13970332D03*
X115649721Y-15982668D03*
%TD*%
D38*
%TO.C,D52*%
X148352631Y-170347916D03*
X146673369Y-169172084D03*
%TD*%
D52*
%TO.C,R87*%
X100611700Y-12503100D03*
X100611700Y-14503100D03*
%TD*%
D58*
%TO.C,D9*%
X170239169Y-124388884D03*
X171918431Y-125564716D03*
%TD*%
D96*
%TO.C,D97*%
X42908000Y-115316000D03*
X44958000Y-115316000D03*
%TD*%
D58*
%TO.C,D88*%
X28674869Y-73224984D03*
X30354131Y-74400816D03*
%TD*%
D117*
%TO.C,R92*%
X54958593Y-35678210D03*
X56740607Y-36586190D03*
%TD*%
D26*
%TO.C,R81*%
X26937448Y-75749924D03*
X28575752Y-76897076D03*
%TD*%
D118*
%TO.C,D85*%
X12360757Y-98504711D03*
X14410443Y-98540489D03*
%TD*%
D119*
%TO.C,D12*%
X184490575Y-87924052D03*
X186520625Y-87638748D03*
%TD*%
D120*
%TO.C,R19*%
X136664318Y-20546993D03*
X135819082Y-22359607D03*
%TD*%
D58*
%TO.C,D47*%
X149143769Y-154516184D03*
X150823031Y-155692016D03*
%TD*%
D57*
%TO.C,D7*%
X156175569Y-55526216D03*
X157854831Y-54350384D03*
%TD*%
D121*
%TO.C,R77*%
X58860928Y-22624152D03*
X59799872Y-24390048D03*
%TD*%
D122*
%TO.C,D59*%
X73228260Y-169008602D03*
X71994540Y-167371398D03*
%TD*%
D52*
%TO.C,R101*%
X159882000Y-90424000D03*
X159882000Y-92424000D03*
%TD*%
D65*
%TO.C,R52*%
X99134200Y-164290900D03*
X99134200Y-162290900D03*
%TD*%
D32*
%TO.C,R35*%
X145528752Y-163209576D03*
X143890448Y-162062424D03*
%TD*%
D52*
%TO.C,R100*%
X156932000Y-90424000D03*
X156932000Y-92424000D03*
%TD*%
D123*
%TO.C,R70*%
X14017973Y-83112791D03*
X15981227Y-83494409D03*
%TD*%
D99*
%TO.C,D40*%
X89939600Y-162265900D03*
X89939600Y-164315900D03*
%TD*%
D32*
%TO.C,R63*%
X149044652Y-158188276D03*
X147406348Y-157041124D03*
%TD*%
D124*
%TO.C,R76*%
X53683956Y-31512787D03*
X55216044Y-30227213D03*
%TD*%
D125*
%TO.C,D93*%
X56130700Y-24093025D03*
X57155700Y-25868375D03*
%TD*%
D126*
%TO.C,R14*%
X183762692Y-120952020D03*
X181883308Y-120267980D03*
%TD*%
D127*
%TO.C,D30*%
X185428201Y-118464210D03*
X183422999Y-118037990D03*
%TD*%
D128*
%TO.C,D54*%
X129818577Y-171991459D03*
X131342023Y-170619741D03*
%TD*%
D125*
%TO.C,D48*%
X143825500Y-173319124D03*
X144850500Y-175094476D03*
%TD*%
D59*
%TO.C,R6*%
X149044652Y-41811724D03*
X147406348Y-42958876D03*
%TD*%
D129*
%TO.C,R5*%
X145157145Y-32408387D03*
X143625055Y-31122813D03*
%TD*%
D52*
%TO.C,R99*%
X153982000Y-90424000D03*
X153982000Y-92424000D03*
%TD*%
D130*
%TO.C,D34*%
X114545536Y-162357801D03*
X114366864Y-164399999D03*
%TD*%
D131*
%TO.C,R78*%
X70204780Y-17643907D03*
X70888820Y-19523293D03*
%TD*%
D74*
%TO.C,R96*%
X53773681Y-25571752D03*
X54833519Y-27267848D03*
%TD*%
D25*
%TO.C,U3*%
X108662800Y-147450000D03*
X108662800Y-148720000D03*
X108662800Y-149990000D03*
X108662800Y-151260000D03*
X108662800Y-152530000D03*
X108662800Y-153800000D03*
X108662800Y-155070000D03*
X108662800Y-156340000D03*
X104040000Y-156340000D03*
X104040000Y-155070000D03*
X104040000Y-153800000D03*
X104040000Y-152530000D03*
X104040000Y-151260000D03*
X104040000Y-149990000D03*
X104040000Y-148720000D03*
X104040000Y-147450000D03*
%TD*%
D132*
%TO.C,D45*%
X135024421Y-175809989D03*
X133214379Y-176772411D03*
%TD*%
D90*
%TO.C,D83*%
X19080716Y-120589031D03*
X17904884Y-118909769D03*
%TD*%
D58*
%TO.C,D46*%
X156175569Y-144473784D03*
X157854831Y-145649616D03*
%TD*%
D59*
%TO.C,R21*%
X145528753Y-36790424D03*
X143890447Y-37937576D03*
%TD*%
%TO.C,R30*%
X173655852Y-76960224D03*
X172017548Y-78107376D03*
%TD*%
D33*
%TO.C,D72*%
X32175231Y-128199884D03*
X30495969Y-129375716D03*
%TD*%
D53*
%TO.C,R65*%
X32274348Y-131871976D03*
X33912652Y-130724824D03*
%TD*%
D33*
%TO.C,D24*%
X161370731Y-59371584D03*
X159691469Y-60547416D03*
%TD*%
D25*
%TO.C,U2*%
X175311400Y-100880000D03*
X175311400Y-102150000D03*
X175311400Y-103420000D03*
X175311400Y-104690000D03*
X175311400Y-105960000D03*
X175311400Y-107230000D03*
X175311400Y-108500000D03*
X175311400Y-109770000D03*
X170688600Y-109770000D03*
X170688600Y-108500000D03*
X170688600Y-107230000D03*
X170688600Y-105960000D03*
X170688600Y-104690000D03*
X170688600Y-103420000D03*
X170688600Y-102150000D03*
X170688600Y-100880000D03*
%TD*%
D61*
%TO.C,U7*%
X23130000Y-97536000D03*
X25130000Y-97536000D03*
%TD*%
D26*
%TO.C,R72*%
X30453348Y-70728724D03*
X32091652Y-71875876D03*
%TD*%
D65*
%TO.C,R40*%
X105264000Y-164290900D03*
X105264000Y-162290900D03*
%TD*%
D133*
%TO.C,D78*%
X62517130Y-23050264D03*
X61618470Y-21207736D03*
%TD*%
D134*
%TO.C,D62*%
X54968934Y-164399784D03*
X56826866Y-163533416D03*
%TD*%
D135*
%TO.C,D87*%
X21275809Y-80652999D03*
X20849591Y-82658201D03*
%TD*%
D136*
%TO.C,R44*%
X61509352Y-178884808D03*
X61856648Y-176915192D03*
%TD*%
D137*
%TO.C,D1*%
X109659884Y-15082960D03*
X109909716Y-13048240D03*
%TD*%
D32*
%TO.C,R34*%
X152560552Y-153167076D03*
X150922248Y-152019924D03*
%TD*%
D138*
%TO.C,R91*%
X76111062Y-15763839D03*
X76662338Y-17686361D03*
%TD*%
D58*
%TO.C,D89*%
X35706669Y-63182584D03*
X37385931Y-64358416D03*
%TD*%
%TO.C,D10*%
X163207369Y-134431384D03*
X164886631Y-135607216D03*
%TD*%
D139*
%TO.C,D69*%
X16027068Y-116608720D03*
X14014732Y-116999880D03*
%TD*%
D140*
%TO.C,D74*%
X14521595Y-104596456D03*
X12474405Y-104703744D03*
%TD*%
D141*
%TO.C,R3*%
X130944468Y-18159120D03*
X130227732Y-20026280D03*
%TD*%
D142*
%TO.C,U20*%
X30036000Y-99568000D03*
X38036000Y-99568000D03*
%TD*%
D52*
%TO.C,R31*%
X182523000Y-78370000D03*
X182523000Y-80370000D03*
%TD*%
D104*
%TO.C,D41*%
X77543128Y-164218937D03*
X78311072Y-166119663D03*
%TD*%
D38*
%TO.C,D50*%
X154338931Y-150670816D03*
X152659669Y-149494984D03*
%TD*%
D143*
%TO.C,R83*%
X18976276Y-79368347D03*
X17829124Y-81006653D03*
%TD*%
M02*
